<?xml version="1.0" encoding="UTF-8"?>
<svg id="Layer_1" data-name="Layer 1" xmlns="http://www.w3.org/2000/svg" version="1.1" viewBox="0 0 1210 315">
  <defs>
    <style>
      .cls-1 {
        fill-rule: evenodd;
      }

      .cls-1, .cls-2 {
        fill: #231f20;
        stroke-width: 0px;
      }
    </style>
  </defs>
  <g id="Artwork">
    <g>
      <g>
        <path class="cls-2" d="M367,211.1h-69.2v-92.5h69.2v16.9h-51.9v21.3h50.1v16.3h-50.1v20.9h51.9v17.2h0Z"/>
        <path class="cls-2" d="M431,146h15.5v65.1h-15.2l-.8-9.5c-3.7,7.7-13.9,11.4-21.1,11.5-19.3.1-33.6-11.8-33.6-34.6s14.9-34.2,34-34.1c8.7,0,17,4.1,20.8,10.6l.5-9h0ZM391.9,178.5c0,13.3,9.9,20.9,21.7,19.7,22.9-2.3,22.9-37.1,0-39.3-11.8-1.1-21.6,6.2-21.6,19.6h0Z"/>
        <path class="cls-2" d="M475,146l1.2,7.5c5-8.1,11.8-9.2,18.4-9.2s13.2,2.6,16.8,6.2l-7.3,14c-3.3-2.8-6.4-4.2-11.6-4.2-8.5,0-16.3,4.5-16.3,16.5v34.3h-16.1v-65.1h14.9Z"/>
        <path class="cls-2" d="M544.2,127.6v18.5h18v13.9h-18.1v28.1c0,6.2,3.4,9.2,8.5,9.2s5.4-.8,7.8-2l4.5,13.7c-4.6,1.9-8.5,2.6-13.3,2.8-14.1.5-23.4-7.5-23.4-23.8v-28.1h-12.2v-13.9h12.2v-16.8l16.1-1.7h0Z"/>
        <path class="cls-2" d="M590.4,118.6v36.2c5.8-7.5,13-9.8,20.3-9.8,18.5,0,26.7,12.6,26.7,31.7v34.4h-16.1v-34.2c0-11.9-6.2-16.9-14.8-16.9s-16.1,8.1-16.1,17.8v33.3h-16.1v-92.5h16.1Z"/>
        <path class="cls-2" d="M675.4,179.1v32h-7.1v-92.5h40.6c40.2,0,40.2,60.5,0,60.5h-33.4ZM675.4,125.2v47.4h33.4c30.8,0,30.8-47.4,0-47.4h-33.4Z"/>
        <path class="cls-2" d="M756.8,145.8l.3,11.6c4.1-8.9,13.3-12.3,21.7-12.3,4.9-.1,9.7,1.2,14,3.8l-2.9,5.3c-3.4-2.1-7.3-3-11.1-3-12.2.1-21.5,9.9-21.5,21.8v38.1h-6.5v-65.3h6.1,0Z"/>
        <path class="cls-2" d="M799.5,178.6c0-20.7,14.8-34,33.2-34s33.2,13.2,33.2,34-14.8,33.4-33.2,33.4-33.2-12.7-33.2-33.4ZM859.5,178.6c0-16.9-12-27.9-26.8-27.9s-26.8,11-26.8,27.9,12,27.1,26.8,27.1,26.8-10.2,26.8-27.1Z"/>
        <path class="cls-2" d="M894.4,126.1v19.7h22.2v5.4h-22.2v39.8c0,8.9,1.8,15.1,12,15.1s6.7-1.1,10-2.6l2.2,5.3c-4.1,2-8.2,3.3-12.3,3.3-13.9,0-18.4-8.2-18.4-21v-39.8h-13.9v-5.4h13.9v-19l6.3-.7h0Z"/>
        <path class="cls-2" d="M927.8,178.5c0-19.6,14.8-33.7,33.2-33.7s34.8,11.2,32.2,36.7h-58.8c1.3,15.3,13.1,24.2,26.6,24.2s18.6-3.4,23.5-9.9l4.6,3.7c-6.3,8.3-17.7,12.6-28.1,12.6-18.4,0-33.2-12.8-33.2-33.6h0ZM987.4,175.8c-.1-16.1-10.7-25.1-26.4-25.1s-25.1,9.1-26.6,25.1h53Z"/>
        <path class="cls-2" d="M1031.7,172.5l19.4-26.7h7.8v.3l-23.4,31.2,25.2,33.6v.3h-7.7l-21.4-29.2-21.4,29.2h-7.7v-.3l25.2-33.6-23.4-31.2v-.3h7.8l19.4,26.7Z"/>
      </g>
      <path class="cls-1" d="M181.8,121.3v133.6h-15.6V121.3c0-25.2-28.5-20.4-39.1,0-5,9.8-8.1,21.4-8.1,33.8,0,31.5,19.3,57.7,44.5,63.4v10.3c-40-4.7-70.8-35.9-70.8-73.7s12.6-45.4,31.9-59c26.5-18.6,57.3-12.1,57.3,25.2h0ZM184,218.6c25.5-5.6,45-31.9,45-63.6s-12.9-48.1-31.6-58.4c-2.8-1.4-2.8-5.5-2.8-6.1v-2.3c0-4.1,2.2-4.5,4.8-3.8,32.4,9.8,55.9,37.7,55.9,70.6s-31.2,69.3-71.3,73.8v-10.2Z"/>
      <path class="cls-2" d="M1076.5,130.1h-8.5v-3.3h20.8v3.3h-8.6v18.1h-3.7v-18.1ZM1092.8,126.8h3.5l8.8,11.2,8.9-11.2h3.4v21.4h-3.7v-15.3l-8.2,10h-.7l-8.1-10.1v15.5h-3.7v-21.4h0Z"/>
    </g>
  </g>
</svg>